<?xml version="1.0" encoding="UTF-8" standalone="no"?>
<!DOCTYPE svg PUBLIC "-//W3C//DTD SVG 1.1//EN"
 "http://www.w3.org/Graphics/SVG/1.1/DTD/svg11.dtd">
<!-- Generated by graphviz version 8.0.3 (20230416.2022)
 -->
<!-- Title: G Pages: 1 -->
<svg width="468pt" height="305pt"
 viewBox="0.00 0.00 467.74 305.00" xmlns="http://www.w3.org/2000/svg" xmlns:xlink="http://www.w3.org/1999/xlink">
<g id="graph0" class="graph" transform="scale(1 1) rotate(0) translate(4 301)">
<title>G</title>
<polygon fill="white" stroke="none" points="-4,4 -4,-301 463.74,-301 463.74,4 -4,4"/>
<!-- Head Down -->
<g id="node1" class="node">
<title>Head Down</title>
<ellipse fill="none" stroke="black" cx="308.74" cy="-279" rx="53.89" ry="18"/>
<text text-anchor="middle" x="308.74" y="-275.3" font-family="Times New Roman,serif" font-size="14.00">Head Down</text>
</g>
<!-- Head Down+Peck at Food/Bait -->
<g id="node2" class="node">
<title>Head Down+Peck at Food/Bait</title>
<ellipse fill="none" stroke="black" cx="147.74" cy="-192" rx="125.38" ry="18"/>
<text text-anchor="middle" x="147.74" y="-188.3" font-family="Times New Roman,serif" font-size="14.00">Head Down+Peck at Food/Bait</text>
</g>
<!-- Head Down&#45;&gt;Head Down+Peck at Food/Bait -->
<g id="edge1" class="edge">
<title>Head Down&#45;&gt;Head Down+Peck at Food/Bait</title>
<path fill="none" stroke="black" d="M280.69,-263.19C255.36,-249.82 217.74,-229.96 188.98,-214.78"/>
<polygon fill="black" stroke="black" points="191.08,-211.4 180.6,-209.82 187.81,-217.59 191.08,-211.4"/>
<text text-anchor="middle" x="262.74" y="-231.8" font-family="Times New Roman,serif" font-size="14.00"> &#160;66.9 %</text>
</g>
<!-- Head Up -->
<g id="node3" class="node">
<title>Head Up</title>
<ellipse fill="none" stroke="black" cx="295.74" cy="-105" rx="43.59" ry="18"/>
<text text-anchor="middle" x="295.74" y="-101.3" font-family="Times New Roman,serif" font-size="14.00">Head Up</text>
</g>
<!-- Head Down&#45;&gt;Head Up -->
<g id="edge8" class="edge">
<title>Head Down&#45;&gt;Head Up</title>
<path fill="none" stroke="black" d="M307.42,-260.56C305.17,-230.81 300.57,-170.01 297.87,-134.17"/>
<polygon fill="black" stroke="black" points="301.3,-134.19 297.06,-124.48 294.32,-134.72 301.3,-134.19"/>
<text text-anchor="middle" x="327.74" y="-188.3" font-family="Times New Roman,serif" font-size="14.00"> &#160;20.7 %</text>
</g>
<!-- Moving -->
<g id="node4" class="node">
<title>Moving</title>
<ellipse fill="none" stroke="black" cx="224.74" cy="-18" rx="38.19" ry="18"/>
<text text-anchor="middle" x="224.74" y="-14.3" font-family="Times New Roman,serif" font-size="14.00">Moving</text>
</g>
<!-- Head Down&#45;&gt;Moving -->
<g id="edge9" class="edge">
<title>Head Down&#45;&gt;Moving</title>
<path fill="none" stroke="black" d="M256.82,-273.65C180.43,-266.06 43.56,-247.48 13.74,-210 -46.28,-134.58 107.69,-63.19 184.37,-33.49"/>
<polygon fill="black" stroke="black" points="185.55,-36.41 193.65,-29.58 183.06,-29.86 185.55,-36.41"/>
<text text-anchor="middle" x="35.74" y="-144.8" font-family="Times New Roman,serif" font-size="14.00"> &#160;12.4 %</text>
</g>
<!-- Head Down+Peck at Food/Bait&#45;&gt;Head Up -->
<g id="edge6" class="edge">
<title>Head Down+Peck at Food/Bait&#45;&gt;Head Up</title>
<path fill="none" stroke="black" d="M176.98,-174.21C201.33,-160.22 236.04,-140.29 261.65,-125.58"/>
<polygon fill="black" stroke="black" points="263.05,-128.24 269.98,-120.22 259.56,-122.16 263.05,-128.24"/>
<text text-anchor="middle" x="254.74" y="-144.8" font-family="Times New Roman,serif" font-size="14.00"> &#160;85.8 %</text>
</g>
<!-- Head Down+Peck at Food/Bait&#45;&gt;Moving -->
<g id="edge2" class="edge">
<title>Head Down+Peck at Food/Bait&#45;&gt;Moving</title>
<path fill="none" stroke="black" d="M155.54,-173.56C169.05,-143.4 196.84,-81.32 212.79,-45.69"/>
<polygon fill="black" stroke="black" points="216.25,-47.53 217.14,-36.98 209.86,-44.67 216.25,-47.53"/>
<text text-anchor="middle" x="218.74" y="-101.3" font-family="Times New Roman,serif" font-size="14.00"> &#160;14.2 %</text>
</g>
<!-- Head Up&#45;&gt;Head Down -->
<g id="edge7" class="edge">
<title>Head Up&#45;&gt;Head Down</title>
<path fill="none" stroke="black" d="M317.15,-121.12C332.51,-133.39 351.98,-152.17 360.74,-174 372.03,-202.16 352.14,-233.1 333.79,-253.85"/>
<polygon fill="black" stroke="black" points="331.63,-251.11 327.38,-260.81 336.75,-255.88 331.63,-251.11"/>
<text text-anchor="middle" x="388.74" y="-188.3" font-family="Times New Roman,serif" font-size="14.00"> &#160;49.8 %</text>
</g>
<!-- Head Up&#45;&gt;Moving -->
<g id="edge4" class="edge">
<title>Head Up&#45;&gt;Moving</title>
<path fill="none" stroke="black" d="M258.37,-95.43C244.4,-90.22 229.95,-81.97 221.74,-69 217.61,-62.48 216.7,-54.48 217.28,-46.81"/>
<polygon fill="black" stroke="black" points="220.88,-47.43 218.98,-37 213.97,-46.33 220.88,-47.43"/>
<text text-anchor="middle" x="245.74" y="-57.8" font-family="Times New Roman,serif" font-size="14.00"> &#160;50.2 %</text>
</g>
<!-- Moving&#45;&gt;Head Down -->
<g id="edge5" class="edge">
<title>Moving&#45;&gt;Head Down</title>
<path fill="none" stroke="black" d="M260.94,-24.29C283.85,-29.07 313.11,-37.91 334.74,-54 386.56,-92.56 397.66,-112.28 416.74,-174 421.46,-189.29 424.47,-195.99 416.74,-210 403.63,-233.74 378.37,-250.32 355.57,-261.17"/>
<polygon fill="black" stroke="black" points="354.36,-258.32 346.66,-265.61 357.22,-264.71 354.36,-258.32"/>
<text text-anchor="middle" x="435.74" y="-144.8" font-family="Times New Roman,serif" font-size="14.00"> &#160;44.0 %</text>
</g>
<!-- Moving&#45;&gt;Head Up -->
<g id="edge3" class="edge">
<title>Moving&#45;&gt;Head Up</title>
<path fill="none" stroke="black" d="M248.79,-32.44C257.51,-38.2 266.88,-45.56 273.74,-54 279.23,-60.75 283.61,-69.09 286.97,-77.01"/>
<polygon fill="black" stroke="black" points="283.96,-77.93 290.81,-86.01 290.49,-75.42 283.96,-77.93"/>
<text text-anchor="middle" x="306.74" y="-57.8" font-family="Times New Roman,serif" font-size="14.00"> &#160;56.0 %</text>
</g>
</g>
</svg>
