<?xml version="1.0" encoding="UTF-8" standalone="no"?>
<!DOCTYPE svg PUBLIC "-//W3C//DTD SVG 1.1//EN"
 "http://www.w3.org/Graphics/SVG/1.1/DTD/svg11.dtd">
<!-- Generated by graphviz version 8.0.3 (20230416.2022)
 -->
<!-- Title: G Pages: 1 -->
<svg width="467pt" height="305pt"
 viewBox="0.00 0.00 466.70 305.00" xmlns="http://www.w3.org/2000/svg" xmlns:xlink="http://www.w3.org/1999/xlink">
<g id="graph0" class="graph" transform="scale(1 1) rotate(0) translate(4 301)">
<title>G</title>
<polygon fill="white" stroke="none" points="-4,4 -4,-301 462.7,-301 462.7,4 -4,4"/>
<!-- Head Down -->
<g id="node1" class="node">
<title>Head Down</title>
<ellipse fill="none" stroke="black" cx="308.7" cy="-279" rx="53.89" ry="18"/>
<text text-anchor="middle" x="308.7" y="-275.3" font-family="Times New Roman,serif" font-size="14.00">Head Down</text>
</g>
<!-- Head Down+Peck at Food/Bait -->
<g id="node2" class="node">
<title>Head Down+Peck at Food/Bait</title>
<ellipse fill="none" stroke="black" cx="147.7" cy="-192" rx="125.38" ry="18"/>
<text text-anchor="middle" x="147.7" y="-188.3" font-family="Times New Roman,serif" font-size="14.00">Head Down+Peck at Food/Bait</text>
</g>
<!-- Head Down&#45;&gt;Head Down+Peck at Food/Bait -->
<g id="edge4" class="edge">
<title>Head Down&#45;&gt;Head Down+Peck at Food/Bait</title>
<path fill="none" stroke="black" d="M280.66,-263.19C255.32,-249.82 217.71,-229.96 188.95,-214.78"/>
<polygon fill="black" stroke="black" points="191.04,-211.4 180.57,-209.82 187.77,-217.59 191.04,-211.4"/>
<text text-anchor="middle" x="262.7" y="-231.8" font-family="Times New Roman,serif" font-size="14.00"> &#160;82.6 %</text>
</g>
<!-- Head Up -->
<g id="node3" class="node">
<title>Head Up</title>
<ellipse fill="none" stroke="black" cx="293.7" cy="-105" rx="43.59" ry="18"/>
<text text-anchor="middle" x="293.7" y="-101.3" font-family="Times New Roman,serif" font-size="14.00">Head Up</text>
</g>
<!-- Head Down&#45;&gt;Head Up -->
<g id="edge7" class="edge">
<title>Head Down&#45;&gt;Head Up</title>
<path fill="none" stroke="black" d="M307.18,-260.56C304.59,-230.81 299.29,-170.01 296.16,-134.17"/>
<polygon fill="black" stroke="black" points="299.58,-134.14 295.23,-124.48 292.61,-134.75 299.58,-134.14"/>
<text text-anchor="middle" x="326.7" y="-188.3" font-family="Times New Roman,serif" font-size="14.00"> &#160;14.6 %</text>
</g>
<!-- Moving -->
<g id="node4" class="node">
<title>Moving</title>
<ellipse fill="none" stroke="black" cx="222.7" cy="-18" rx="38.19" ry="18"/>
<text text-anchor="middle" x="222.7" y="-14.3" font-family="Times New Roman,serif" font-size="14.00">Moving</text>
</g>
<!-- Head Down&#45;&gt;Moving -->
<g id="edge9" class="edge">
<title>Head Down&#45;&gt;Moving</title>
<path fill="none" stroke="black" d="M256.78,-273.65C180.4,-266.06 43.52,-247.48 13.7,-210 -46,-134.97 106.64,-63.38 182.68,-33.56"/>
<polygon fill="black" stroke="black" points="183.8,-36.49 191.87,-29.63 181.28,-29.96 183.8,-36.49"/>
<text text-anchor="middle" x="32.2" y="-144.8" font-family="Times New Roman,serif" font-size="14.00"> &#160;2.8 %</text>
</g>
<!-- Head Down+Peck at Food/Bait&#45;&gt;Head Up -->
<g id="edge5" class="edge">
<title>Head Down+Peck at Food/Bait&#45;&gt;Head Up</title>
<path fill="none" stroke="black" d="M176.55,-174.21C200.57,-160.22 234.81,-140.29 260.08,-125.58"/>
<polygon fill="black" stroke="black" points="261.4,-128.28 268.28,-120.22 257.88,-122.23 261.4,-128.28"/>
<text text-anchor="middle" x="253.7" y="-144.8" font-family="Times New Roman,serif" font-size="14.00"> &#160;93.9 %</text>
</g>
<!-- Head Down+Peck at Food/Bait&#45;&gt;Moving -->
<g id="edge8" class="edge">
<title>Head Down+Peck at Food/Bait&#45;&gt;Moving</title>
<path fill="none" stroke="black" d="M155.31,-173.56C168.46,-143.4 195.53,-81.32 211.06,-45.69"/>
<polygon fill="black" stroke="black" points="214.51,-47.54 215.3,-36.98 208.1,-44.74 214.51,-47.54"/>
<text text-anchor="middle" x="213.2" y="-101.3" font-family="Times New Roman,serif" font-size="14.00"> &#160;6.1 %</text>
</g>
<!-- Head Up&#45;&gt;Head Down -->
<g id="edge6" class="edge">
<title>Head Up&#45;&gt;Head Down</title>
<path fill="none" stroke="black" d="M315.76,-120.98C331.58,-133.16 351.65,-151.92 360.7,-174 372.21,-202.07 352.28,-233.03 333.86,-253.81"/>
<polygon fill="black" stroke="black" points="331.69,-251.08 327.42,-260.78 336.81,-255.86 331.69,-251.08"/>
<text text-anchor="middle" x="388.7" y="-188.3" font-family="Times New Roman,serif" font-size="14.00"> &#160;64.0 %</text>
</g>
<!-- Head Up&#45;&gt;Moving -->
<g id="edge2" class="edge">
<title>Head Up&#45;&gt;Moving</title>
<path fill="none" stroke="black" d="M256.33,-95.43C242.37,-90.22 227.91,-81.97 219.7,-69 215.58,-62.48 214.67,-54.48 215.25,-46.81"/>
<polygon fill="black" stroke="black" points="218.85,-47.43 216.95,-37 211.93,-46.33 218.85,-47.43"/>
<text text-anchor="middle" x="243.7" y="-57.8" font-family="Times New Roman,serif" font-size="14.00"> &#160;36.0 %</text>
</g>
<!-- Moving&#45;&gt;Head Down -->
<g id="edge3" class="edge">
<title>Moving&#45;&gt;Head Down</title>
<path fill="none" stroke="black" d="M258.84,-24.38C281.73,-29.18 310.99,-38.03 332.7,-54 385.15,-92.57 397.13,-111.91 416.7,-174 421.51,-189.26 424.44,-195.99 416.7,-210 403.6,-233.74 378.34,-250.32 355.54,-261.17"/>
<polygon fill="black" stroke="black" points="354.32,-258.32 346.63,-265.61 357.19,-264.71 354.32,-258.32"/>
<text text-anchor="middle" x="434.7" y="-144.8" font-family="Times New Roman,serif" font-size="14.00"> &#160;47.2 %</text>
</g>
<!-- Moving&#45;&gt;Head Up -->
<g id="edge1" class="edge">
<title>Moving&#45;&gt;Head Up</title>
<path fill="none" stroke="black" d="M246.76,-32.44C255.47,-38.2 264.84,-45.56 271.7,-54 277.19,-60.75 281.57,-69.09 284.94,-77.01"/>
<polygon fill="black" stroke="black" points="281.92,-77.93 288.78,-86.01 288.46,-75.42 281.92,-77.93"/>
<text text-anchor="middle" x="304.7" y="-57.8" font-family="Times New Roman,serif" font-size="14.00"> &#160;52.8 %</text>
</g>
</g>
</svg>
