<?xml version="1.0" encoding="UTF-8" standalone="no"?>
<!DOCTYPE svg PUBLIC "-//W3C//DTD SVG 1.1//EN"
 "http://www.w3.org/Graphics/SVG/1.1/DTD/svg11.dtd">
<!-- Generated by graphviz version 8.0.3 (20230416.2022)
 -->
<!-- Title: G Pages: 1 -->
<svg width="463pt" height="305pt"
 viewBox="0.00 0.00 462.74 305.00" xmlns="http://www.w3.org/2000/svg" xmlns:xlink="http://www.w3.org/1999/xlink">
<g id="graph0" class="graph" transform="scale(1 1) rotate(0) translate(4 301)">
<title>G</title>
<polygon fill="white" stroke="none" points="-4,4 -4,-301 458.74,-301 458.74,4 -4,4"/>
<!-- Head Down -->
<g id="node1" class="node">
<title>Head Down</title>
<ellipse fill="none" stroke="black" cx="308.74" cy="-279" rx="53.89" ry="18"/>
<text text-anchor="middle" x="308.74" y="-275.3" font-family="Times New Roman,serif" font-size="14.00">Head Down</text>
</g>
<!-- Head Down+Peck at Food/Bait -->
<g id="node2" class="node">
<title>Head Down+Peck at Food/Bait</title>
<ellipse fill="none" stroke="black" cx="147.74" cy="-192" rx="125.38" ry="18"/>
<text text-anchor="middle" x="147.74" y="-188.3" font-family="Times New Roman,serif" font-size="14.00">Head Down+Peck at Food/Bait</text>
</g>
<!-- Head Down&#45;&gt;Head Down+Peck at Food/Bait -->
<g id="edge5" class="edge">
<title>Head Down&#45;&gt;Head Down+Peck at Food/Bait</title>
<path fill="none" stroke="black" d="M280.69,-263.19C255.36,-249.82 217.74,-229.96 188.98,-214.78"/>
<polygon fill="black" stroke="black" points="191.08,-211.4 180.6,-209.82 187.81,-217.59 191.08,-211.4"/>
<text text-anchor="middle" x="262.74" y="-231.8" font-family="Times New Roman,serif" font-size="14.00"> &#160;54.3 %</text>
</g>
<!-- Head Up -->
<g id="node3" class="node">
<title>Head Up</title>
<ellipse fill="none" stroke="black" cx="295.74" cy="-105" rx="43.59" ry="18"/>
<text text-anchor="middle" x="295.74" y="-101.3" font-family="Times New Roman,serif" font-size="14.00">Head Up</text>
</g>
<!-- Head Down&#45;&gt;Head Up -->
<g id="edge1" class="edge">
<title>Head Down&#45;&gt;Head Up</title>
<path fill="none" stroke="black" d="M307.42,-260.56C305.17,-230.81 300.57,-170.01 297.87,-134.17"/>
<polygon fill="black" stroke="black" points="301.3,-134.19 297.06,-124.48 294.32,-134.72 301.3,-134.19"/>
<text text-anchor="middle" x="327.74" y="-188.3" font-family="Times New Roman,serif" font-size="14.00"> &#160;14.8 %</text>
</g>
<!-- Moving -->
<g id="node4" class="node">
<title>Moving</title>
<ellipse fill="none" stroke="black" cx="224.74" cy="-18" rx="38.19" ry="18"/>
<text text-anchor="middle" x="224.74" y="-14.3" font-family="Times New Roman,serif" font-size="14.00">Moving</text>
</g>
<!-- Head Down&#45;&gt;Moving -->
<g id="edge9" class="edge">
<title>Head Down&#45;&gt;Moving</title>
<path fill="none" stroke="black" d="M256.82,-273.65C180.43,-266.06 43.56,-247.48 13.74,-210 -46.28,-134.58 107.69,-63.19 184.37,-33.49"/>
<polygon fill="black" stroke="black" points="185.55,-36.41 193.65,-29.58 183.06,-29.86 185.55,-36.41"/>
<text text-anchor="middle" x="35.74" y="-144.8" font-family="Times New Roman,serif" font-size="14.00"> &#160;30.9 %</text>
</g>
<!-- Head Down+Peck at Food/Bait&#45;&gt;Head Up -->
<g id="edge6" class="edge">
<title>Head Down+Peck at Food/Bait&#45;&gt;Head Up</title>
<path fill="none" stroke="black" d="M176.98,-174.21C201.33,-160.22 236.04,-140.29 261.65,-125.58"/>
<polygon fill="black" stroke="black" points="263.05,-128.24 269.98,-120.22 259.56,-122.16 263.05,-128.24"/>
<text text-anchor="middle" x="254.74" y="-144.8" font-family="Times New Roman,serif" font-size="14.00"> &#160;76.7 %</text>
</g>
<!-- Head Down+Peck at Food/Bait&#45;&gt;Moving -->
<g id="edge7" class="edge">
<title>Head Down+Peck at Food/Bait&#45;&gt;Moving</title>
<path fill="none" stroke="black" d="M155.54,-173.56C169.05,-143.4 196.84,-81.32 212.79,-45.69"/>
<polygon fill="black" stroke="black" points="216.25,-47.53 217.14,-36.98 209.86,-44.67 216.25,-47.53"/>
<text text-anchor="middle" x="218.74" y="-101.3" font-family="Times New Roman,serif" font-size="14.00"> &#160;23.3 %</text>
</g>
<!-- Head Up&#45;&gt;Head Down -->
<g id="edge2" class="edge">
<title>Head Up&#45;&gt;Head Down</title>
<path fill="none" stroke="black" d="M315.54,-121.48C329.74,-133.93 347.72,-152.79 355.74,-174 366.22,-201.73 348.39,-232.57 331.77,-253.42"/>
<polygon fill="black" stroke="black" points="328.56,-250.79 324.8,-260.7 333.92,-255.3 328.56,-250.79"/>
<text text-anchor="middle" x="383.74" y="-188.3" font-family="Times New Roman,serif" font-size="14.00"> &#160;54.4 %</text>
</g>
<!-- Head Up&#45;&gt;Moving -->
<g id="edge3" class="edge">
<title>Head Up&#45;&gt;Moving</title>
<path fill="none" stroke="black" d="M259.73,-94.57C246.75,-89.27 233.43,-81.18 225.74,-69 221.62,-62.49 220.24,-54.49 220.19,-46.81"/>
<polygon fill="black" stroke="black" points="223.74,-47.22 220.9,-37.01 216.75,-46.76 223.74,-47.22"/>
<text text-anchor="middle" x="249.74" y="-57.8" font-family="Times New Roman,serif" font-size="14.00"> &#160;45.6 %</text>
</g>
<!-- Moving&#45;&gt;Head Down -->
<g id="edge8" class="edge">
<title>Moving&#45;&gt;Head Down</title>
<path fill="none" stroke="black" d="M261.1,-24.08C284.07,-28.77 313.35,-37.6 334.74,-54 385.02,-92.56 393.9,-113.19 411.74,-174 416.24,-189.35 419.32,-195.91 411.74,-210 399.41,-232.91 375.61,-249.38 353.99,-260.37"/>
<polygon fill="black" stroke="black" points="352.76,-257.56 345.26,-265.04 355.79,-263.87 352.76,-257.56"/>
<text text-anchor="middle" x="430.74" y="-144.8" font-family="Times New Roman,serif" font-size="14.00"> &#160;64.3 %</text>
</g>
<!-- Moving&#45;&gt;Head Up -->
<g id="edge4" class="edge">
<title>Moving&#45;&gt;Head Up</title>
<path fill="none" stroke="black" d="M248.79,-32.44C257.51,-38.2 266.88,-45.56 273.74,-54 279.23,-60.75 283.61,-69.09 286.97,-77.01"/>
<polygon fill="black" stroke="black" points="283.96,-77.93 290.81,-86.01 290.49,-75.42 283.96,-77.93"/>
<text text-anchor="middle" x="306.74" y="-57.8" font-family="Times New Roman,serif" font-size="14.00"> &#160;35.7 %</text>
</g>
</g>
</svg>
